<?xml version="1.0" encoding="utf-8"?>
<!-- Generator: Adobe Illustrator 22.1.0, SVG Export Plug-In . SVG Version: 6.00 Build 0)  -->
<svg version="1.1" id="Layer_1" xmlns="http://www.w3.org/2000/svg" xmlns:xlink="http://www.w3.org/1999/xlink" x="0px" y="0px"
	 viewBox="0 0 70.4 70.4" style="enable-background:new 0 0 70.4 70.4;" xml:space="preserve">
<style type="text/css">
	.st0{fill:#606060;}
</style>
<g id="Layer_1_1_">
	<path class="st0" d="M35.2,4.8c16.7,0,30.4,13.6,30.4,30.4S52,65.6,35.2,65.6C18.5,65.6,4.8,52,4.8,35.2
		C4.8,18.5,18.5,4.8,35.2,4.8 M35.2,0C15.8,0,0,15.8,0,35.2s15.8,35.2,35.2,35.2s35.2-15.8,35.2-35.2S54.7,0,35.2,0L35.2,0z"/>
</g>
<g>
	<path class="st0" d="M19.2,22.2c0-2,0.7-4.1,2-6.2s3.2-3.8,5.7-5.2s5.4-2.1,8.8-2.1c3.1,0,5.9,0.6,8.3,1.7c2.4,1.1,4.2,2.7,5.5,4.7
		s1.9,4.1,1.9,6.4c0,1.8-0.4,3.4-1.1,4.8c-0.7,1.4-1.6,2.6-2.6,3.6s-2.9,2.7-5.5,5c-0.7,0.7-1.3,1.3-1.8,1.8s-0.8,1-1,1.4
		s-0.4,0.8-0.5,1.3s-0.3,1.2-0.5,2.2C38,43.8,36.7,45,34.6,45c-1.1,0-2.1-0.4-2.8-1.1c-0.8-0.7-1.1-1.8-1.1-3.3
		c0-1.8,0.3-3.4,0.8-4.7c0.6-1.3,1.3-2.5,2.2-3.5s2.2-2.2,3.7-3.6c1.4-1.2,2.4-2.1,3-2.7s1.1-1.3,1.5-2c0.4-0.8,0.6-1.6,0.6-2.4
		c0-1.7-0.6-3.2-1.9-4.4c-1.3-1.2-2.9-1.8-4.9-1.8c-2.4,0-4.1,0.6-5.2,1.8s-2.1,2.9-2.8,5.3c-0.7,2.4-2.1,3.6-4.2,3.6
		c-1.2,0-2.2-0.4-3-1.3C19.6,24.1,19.2,23.2,19.2,22.2z M34.9,57.5c-1.3,0-2.5-0.4-3.4-1.3c-1-0.8-1.5-2-1.5-3.6
		c0-1.4,0.5-2.5,1.4-3.4c0.9-0.9,2.1-1.4,3.5-1.4s2.5,0.5,3.4,1.4s1.4,2.1,1.4,3.4c0,1.5-0.5,2.7-1.5,3.5
		C37.3,57.1,36.2,57.5,34.9,57.5z"/>
</g>
</svg>
