<svg id="Layer_1" data-name="Layer 1" xmlns="http://www.w3.org/2000/svg" viewBox="0 0 63.71 55.57"><defs><style>.cls-1{fill:#67c5f0;}.cls-2{fill:none;stroke:#67c5f0;stroke-linecap:round;stroke-miterlimit:10;stroke-width:6px;}</style></defs><title>Mic_Icon</title><path class="cls-1" d="M51,52.2a2,2,0,0,1-1.44-.59,2,2,0,0,1,0-2.88,34.57,34.57,0,0,0,3-45.46A2,2,0,0,1,55.75.8a38.63,38.63,0,0,1-3.36,50.81A2,2,0,0,1,51,52.2Z"/><path class="cls-1" d="M44.56,45.81a2,2,0,0,1-1.43-3.47A25.52,25.52,0,0,0,45.35,8.77a2,2,0,0,1,3.23-2.48A29.62,29.62,0,0,1,46,45.22,2.06,2.06,0,0,1,44.56,45.81Z"/><path class="cls-1" d="M38.18,39.42a2,2,0,0,1-1.44-3.48,16.48,16.48,0,0,0,1.44-21.67,2,2,0,0,1,3.23-2.48,20.55,20.55,0,0,1-1.8,27A2,2,0,0,1,38.18,39.42Z"/><rect class="cls-1" x="8.96" y="3.4" width="15.47" height="35.54" rx="7.73" ry="7.73"/><path class="cls-2" d="M30.39,32.15A13.7,13.7,0,1,1,3,32.15"/><line class="cls-2" x1="16.7" y1="45.85" x2="16.7" y2="52.57"/></svg>