<?xml version="1.0" encoding="utf-8"?>
<!-- Generator: Adobe Illustrator 22.0.0, SVG Export Plug-In . SVG Version: 6.00 Build 0)  -->
<svg version="1.1" id="Layer_1" xmlns="http://www.w3.org/2000/svg" xmlns:xlink="http://www.w3.org/1999/xlink" x="0px" y="0px"
	 viewBox="0 0 52.9 40.7" style="enable-background:new 0 0 52.9 40.7;" xml:space="preserve">
<style type="text/css">
	.st0{fill:#64C5F0;}
</style>
<g>
	<g>
		<path class="st0" d="M28.4,0.2C27.6-0.2,26.7,0,26,0.6L14.4,12c-0.2,0.2-0.4,0.4-0.5,0.7H0.8c-0.5,0-0.8,0.4-0.8,0.8v13.3
			c0,0.5,0.4,0.8,0.8,0.8h13.1c0.1,0.3,0.3,0.5,0.5,0.7L26,39.7c0.4,0.4,1,0.6,1.6,0.6c0.3,0,0.6-0.1,0.8-0.1c0.8-0.4,1.4-1.1,1.4-2
			v-36C29.8,1.3,29.3,0.5,28.4,0.2"/>
	</g>
	<path class="st0" d="M35.6,34.4c-0.5,0-1-0.2-1.4-0.6c-0.8-0.8-0.8-2.1,0-2.9c3.1-3.2,4.7-7.3,4.7-11.7c-0.1-3.7-1.3-7.1-3.5-10
		c-0.7-0.9-0.5-2.2,0.3-2.9c0.9-0.7,2.2-0.5,2.9,0.3c2.8,3.6,4.3,7.9,4.4,12.4c0.1,5.5-2,10.7-5.8,14.6
		C36.6,34.2,36.1,34.4,35.6,34.4z"/>
	<path class="st0" d="M43.1,40.7c-0.5,0-1-0.2-1.4-0.6c-0.8-0.8-0.8-2.1,0-2.9c4.8-4.9,7.3-11.3,7.2-18.2c-0.1-5.7-2-11-5.5-15.4
		c-0.7-0.9-0.5-2.2,0.3-2.9c0.9-0.7,2.2-0.5,2.9,0.3c4.1,5.1,6.3,11.3,6.4,17.9c0.1,7.9-2.9,15.4-8.4,21.1
		C44.1,40.5,43.6,40.7,43.1,40.7z"/>
</g>
</svg>
