<svg id="Layer_1" data-name="Layer 1" xmlns="http://www.w3.org/2000/svg" viewBox="0 0 57.38 40"><defs><style>.cls-1{fill:#ed2224;}</style></defs><title>Sound_Mute</title><path class="cls-1" d="M28.62.16a2.31,2.31,0,0,0-2.44.47L14.51,11.91a2,2,0,0,0-.47.7H.84a.83.83,0,0,0-.84.82V26.59a.83.83,0,0,0,.84.82H14a1.89,1.89,0,0,0,.47.68L26.18,39.37a2.43,2.43,0,0,0,1.6.63,2.48,2.48,0,0,0,.84-.15,2.19,2.19,0,0,0,1.38-2V2.16a2.18,2.18,0,0,0-1.38-2"/><polygon class="cls-1" points="53.85 11.31 48.19 16.96 42.54 11.31 39 14.84 44.66 20.5 39 26.16 42.54 29.69 48.19 24.04 53.85 29.69 57.38 26.16 51.73 20.5 57.38 14.84 53.85 11.31"/></svg>